<mxfile host="app.diagrams.net" agent="Mozilla/5.0 (Macintosh; Intel Mac OS X 10_15_7) AppleWebKit/537.36 (KHTML, like Gecko) Chrome/131.0.0.0 Safari/537.36" version="25.0.3">
  <diagram name="Page-1" id="2YBvvXClWsGukQMizWep">
    <mxGraphModel dx="977" dy="658" grid="1" gridSize="10" guides="1" tooltips="1" connect="1" arrows="1" fold="1" page="1" pageScale="1" pageWidth="850" pageHeight="1100" math="0" shadow="0">
      <root>
        <mxCell id="0" />
        <mxCell id="1" parent="0" />
        <mxCell id="rRQOPOqROTzxPJMI8QWG-17" value="LoginManager" style="shape=umlLifeline;perimeter=lifelinePerimeter;whiteSpace=wrap;html=1;container=1;dropTarget=0;collapsible=0;recursiveResize=0;outlineConnect=0;portConstraint=eastwest;newEdgeStyle={&quot;curved&quot;:0,&quot;rounded&quot;:0};" vertex="1" parent="1">
          <mxGeometry x="1080" y="370" width="100" height="460" as="geometry" />
        </mxCell>
        <mxCell id="rRQOPOqROTzxPJMI8QWG-18" value="" style="html=1;points=[[0,0,0,0,5],[0,1,0,0,-5],[1,0,0,0,5],[1,1,0,0,-5]];perimeter=orthogonalPerimeter;outlineConnect=0;targetShapes=umlLifeline;portConstraint=eastwest;newEdgeStyle={&quot;curved&quot;:0,&quot;rounded&quot;:0};" vertex="1" parent="rRQOPOqROTzxPJMI8QWG-17">
          <mxGeometry x="45" y="227.02999999999997" width="10" height="40" as="geometry" />
        </mxCell>
        <mxCell id="rRQOPOqROTzxPJMI8QWG-19" value="checkCredentials(credentials)" style="html=1;align=left;spacingLeft=2;endArrow=block;rounded=0;edgeStyle=orthogonalEdgeStyle;curved=0;rounded=0;" edge="1" parent="rRQOPOqROTzxPJMI8QWG-17">
          <mxGeometry relative="1" as="geometry">
            <mxPoint x="50" y="219.99999999999997" as="sourcePoint" />
            <Array as="points">
              <mxPoint x="80" y="249.99999999999997" />
            </Array>
            <mxPoint x="55" y="250.01761904761904" as="targetPoint" />
          </mxGeometry>
        </mxCell>
        <mxCell id="aM9ryv3xv72pqoxQDRHE-7" value="getLoginPage()" style="html=1;verticalAlign=bottom;endArrow=block;edgeStyle=elbowEdgeStyle;elbow=vertical;curved=0;rounded=0;" parent="1" edge="1">
          <mxGeometry x="0.0023" relative="1" as="geometry">
            <mxPoint x="209.81034482758616" y="439.9999999999999" as="sourcePoint" />
            <Array as="points">
              <mxPoint x="400" y="440" />
              <mxPoint x="365" y="410" />
            </Array>
            <mxPoint x="520" y="440" as="targetPoint" />
            <mxPoint as="offset" />
          </mxGeometry>
        </mxCell>
        <mxCell id="1ZKG4CmkqfWAM7Gi57S6-6" value="&lt;b&gt;Interaction&lt;/b&gt; User Login" style="shape=umlFrame;whiteSpace=wrap;html=1;pointerEvents=0;width=140;height=30;" parent="1" vertex="1">
          <mxGeometry x="160" y="310" width="1090" height="560" as="geometry" />
        </mxCell>
        <mxCell id="1ZKG4CmkqfWAM7Gi57S6-11" value="LoginManager" style="shape=umlLifeline;perimeter=lifelinePerimeter;whiteSpace=wrap;html=1;container=1;dropTarget=0;collapsible=0;recursiveResize=0;outlineConnect=0;portConstraint=eastwest;newEdgeStyle={&quot;curved&quot;:0,&quot;rounded&quot;:0};" parent="1" vertex="1">
          <mxGeometry x="780" y="370" width="100" height="460" as="geometry" />
        </mxCell>
        <mxCell id="1ZKG4CmkqfWAM7Gi57S6-21" value="" style="html=1;points=[[0,0,0,0,5],[0,1,0,0,-5],[1,0,0,0,5],[1,1,0,0,-5]];perimeter=orthogonalPerimeter;outlineConnect=0;targetShapes=umlLifeline;portConstraint=eastwest;newEdgeStyle={&quot;curved&quot;:0,&quot;rounded&quot;:0};" parent="1ZKG4CmkqfWAM7Gi57S6-11" vertex="1">
          <mxGeometry x="45" y="220" width="10" height="180.97" as="geometry" />
        </mxCell>
        <mxCell id="1ZKG4CmkqfWAM7Gi57S6-22" value="checkCredentials(credentials)" style="html=1;align=left;spacingLeft=2;endArrow=block;rounded=0;edgeStyle=orthogonalEdgeStyle;curved=0;rounded=0;" parent="1ZKG4CmkqfWAM7Gi57S6-11" edge="1">
          <mxGeometry x="-0.3682" y="8" relative="1" as="geometry">
            <mxPoint x="50" y="215.02999999999997" as="sourcePoint" />
            <Array as="points">
              <mxPoint x="50" y="208" />
            </Array>
            <mxPoint x="350" y="208" as="targetPoint" />
            <mxPoint as="offset" />
          </mxGeometry>
        </mxCell>
        <mxCell id="ymWepqPld3naHtEsWhe9-1" value="" style="html=1;points=[[0,0,0,0,5],[0,1,0,0,-5],[1,0,0,0,5],[1,1,0,0,-5]];perimeter=orthogonalPerimeter;outlineConnect=0;targetShapes=umlLifeline;portConstraint=eastwest;newEdgeStyle={&quot;curved&quot;:0,&quot;rounded&quot;:0};" parent="1ZKG4CmkqfWAM7Gi57S6-11" vertex="1">
          <mxGeometry x="45" y="85" width="10" height="40" as="geometry" />
        </mxCell>
        <mxCell id="1ZKG4CmkqfWAM7Gi57S6-17" style="edgeStyle=orthogonalEdgeStyle;rounded=0;orthogonalLoop=1;jettySize=auto;html=1;curved=0;" parent="1" edge="1">
          <mxGeometry relative="1" as="geometry">
            <mxPoint x="210.24683544303792" y="557.0126582278481" as="sourcePoint" />
            <mxPoint x="519.5" y="557.0126582278481" as="targetPoint" />
            <Array as="points">
              <mxPoint x="280" y="557" />
              <mxPoint x="280" y="557" />
            </Array>
          </mxGeometry>
        </mxCell>
        <mxCell id="1ZKG4CmkqfWAM7Gi57S6-18" value="insertCredentials(credentials)" style="edgeLabel;html=1;align=center;verticalAlign=middle;resizable=0;points=[];" parent="1ZKG4CmkqfWAM7Gi57S6-17" vertex="1" connectable="0">
          <mxGeometry x="0.0133" y="1" relative="1" as="geometry">
            <mxPoint y="-9" as="offset" />
          </mxGeometry>
        </mxCell>
        <mxCell id="1ZKG4CmkqfWAM7Gi57S6-13" value="" style="shape=umlLifeline;perimeter=lifelinePerimeter;whiteSpace=wrap;html=1;container=1;dropTarget=0;collapsible=0;recursiveResize=0;outlineConnect=0;portConstraint=eastwest;newEdgeStyle={&quot;curved&quot;:0,&quot;rounded&quot;:0};participant=umlActor;size=40;" parent="1" vertex="1">
          <mxGeometry x="200" y="380" width="20" height="450" as="geometry" />
        </mxCell>
        <mxCell id="1ZKG4CmkqfWAM7Gi57S6-14" value="User" style="text;html=1;align=center;verticalAlign=middle;resizable=0;points=[];autosize=1;strokeColor=none;fillColor=none;" parent="1" vertex="1">
          <mxGeometry x="225" y="390" width="50" height="30" as="geometry" />
        </mxCell>
        <mxCell id="1ZKG4CmkqfWAM7Gi57S6-16" value="LoginPage" style="html=1;verticalAlign=bottom;endArrow=open;dashed=1;endSize=8;curved=0;rounded=0;" parent="1" edge="1">
          <mxGeometry x="-0.0023" relative="1" as="geometry">
            <mxPoint x="829.5" y="500" as="sourcePoint" />
            <mxPoint x="519.5" y="500" as="targetPoint" />
            <Array as="points">
              <mxPoint x="550" y="500" />
            </Array>
            <mxPoint as="offset" />
          </mxGeometry>
        </mxCell>
        <mxCell id="1ZKG4CmkqfWAM7Gi57S6-19" value="redirectHomePage(message)" style="html=1;verticalAlign=bottom;endArrow=open;dashed=1;endSize=8;curved=0;rounded=0;" parent="1" edge="1" target="1ZKG4CmkqfWAM7Gi57S6-13">
          <mxGeometry x="-0.0023" relative="1" as="geometry">
            <mxPoint x="519.5" y="731.05" as="sourcePoint" />
            <mxPoint x="220" y="731.05" as="targetPoint" />
            <Array as="points">
              <mxPoint x="460" y="731.05" />
              <mxPoint x="400" y="731.05" />
              <mxPoint x="340" y="731.05" />
              <mxPoint x="310" y="731.05" />
            </Array>
            <mxPoint as="offset" />
          </mxGeometry>
        </mxCell>
        <mxCell id="1ZKG4CmkqfWAM7Gi57S6-23" value="alternative" style="shape=umlFrame;whiteSpace=wrap;html=1;pointerEvents=0;" parent="1" vertex="1">
          <mxGeometry x="175" y="650" width="1005" height="200" as="geometry" />
        </mxCell>
        <mxCell id="1ZKG4CmkqfWAM7Gi57S6-24" value="if ok:" style="text;html=1;align=center;verticalAlign=middle;resizable=0;points=[];autosize=1;strokeColor=none;fillColor=none;labelBackgroundColor=default;" parent="1" vertex="1">
          <mxGeometry x="185" y="680" width="50" height="30" as="geometry" />
        </mxCell>
        <mxCell id="1ZKG4CmkqfWAM7Gi57S6-25" value="" style="endArrow=none;dashed=1;html=1;rounded=0;entryX=1.01;entryY=0.596;entryDx=0;entryDy=0;entryPerimeter=0;exitX=-0.002;exitY=0.603;exitDx=0;exitDy=0;exitPerimeter=0;" parent="1" edge="1">
          <mxGeometry width="50" height="50" relative="1" as="geometry">
            <mxPoint x="172.99" y="760.6000000000001" as="sourcePoint" />
            <mxPoint x="1190.0500000000002" y="759.2" as="targetPoint" />
            <Array as="points">
              <mxPoint x="400" y="760" />
            </Array>
          </mxGeometry>
        </mxCell>
        <mxCell id="1ZKG4CmkqfWAM7Gi57S6-26" value="&lt;span style=&quot;background-color: rgb(255, 255, 255);&quot;&gt;else&lt;/span&gt;" style="text;html=1;align=center;verticalAlign=middle;resizable=0;points=[];autosize=1;strokeColor=none;fillColor=none;" parent="1" vertex="1">
          <mxGeometry x="175" y="735" width="50" height="30" as="geometry" />
        </mxCell>
        <mxCell id="1ZKG4CmkqfWAM7Gi57S6-27" value="redirectLoginPage(message)" style="html=1;verticalAlign=bottom;endArrow=open;dashed=1;endSize=8;curved=0;rounded=0;" parent="1" edge="1">
          <mxGeometry x="-0.0023" relative="1" as="geometry">
            <mxPoint x="509.5" y="810" as="sourcePoint" />
            <mxPoint x="210" y="810" as="targetPoint" />
            <Array as="points">
              <mxPoint x="450" y="810" />
              <mxPoint x="390" y="810" />
              <mxPoint x="330" y="810" />
              <mxPoint x="300" y="810" />
            </Array>
            <mxPoint as="offset" />
          </mxGeometry>
        </mxCell>
        <mxCell id="rRQOPOqROTzxPJMI8QWG-2" value="API" style="shape=umlLifeline;perimeter=lifelinePerimeter;whiteSpace=wrap;html=1;container=1;dropTarget=0;collapsible=0;recursiveResize=0;outlineConnect=0;portConstraint=eastwest;newEdgeStyle={&quot;curved&quot;:0,&quot;rounded&quot;:0};" vertex="1" parent="1">
          <mxGeometry x="470" y="370" width="100" height="460" as="geometry" />
        </mxCell>
        <mxCell id="rRQOPOqROTzxPJMI8QWG-6" value="" style="html=1;points=[[0,0,0,0,5],[0,1,0,0,-5],[1,0,0,0,5],[1,1,0,0,-5]];perimeter=orthogonalPerimeter;outlineConnect=0;targetShapes=umlLifeline;portConstraint=eastwest;newEdgeStyle={&quot;curved&quot;:0,&quot;rounded&quot;:0};" vertex="1" parent="rRQOPOqROTzxPJMI8QWG-2">
          <mxGeometry x="45" y="85" width="10" height="40" as="geometry" />
        </mxCell>
        <mxCell id="rRQOPOqROTzxPJMI8QWG-12" value="" style="html=1;points=[[0,0,0,0,5],[0,1,0,0,-5],[1,0,0,0,5],[1,1,0,0,-5]];perimeter=orthogonalPerimeter;outlineConnect=0;targetShapes=umlLifeline;portConstraint=eastwest;newEdgeStyle={&quot;curved&quot;:0,&quot;rounded&quot;:0};" vertex="1" parent="rRQOPOqROTzxPJMI8QWG-2">
          <mxGeometry x="45" y="200" width="10" height="240" as="geometry" />
        </mxCell>
        <mxCell id="rRQOPOqROTzxPJMI8QWG-4" value="getLoginPage()" style="html=1;verticalAlign=bottom;endArrow=block;edgeStyle=elbowEdgeStyle;elbow=vertical;curved=0;rounded=0;" edge="1" parent="1">
          <mxGeometry x="0.0023" relative="1" as="geometry">
            <mxPoint x="520.0003448275861" y="449.9999999999999" as="sourcePoint" />
            <Array as="points">
              <mxPoint x="710.19" y="450" />
              <mxPoint x="675.19" y="420" />
            </Array>
            <mxPoint x="830.19" y="450" as="targetPoint" />
            <mxPoint as="offset" />
          </mxGeometry>
        </mxCell>
        <mxCell id="rRQOPOqROTzxPJMI8QWG-5" value="showLoginPage()" style="html=1;verticalAlign=bottom;endArrow=open;dashed=1;endSize=8;curved=0;rounded=0;" edge="1" parent="1">
          <mxGeometry x="-0.0023" relative="1" as="geometry">
            <mxPoint x="520" y="519.52" as="sourcePoint" />
            <mxPoint x="210" y="519.52" as="targetPoint" />
            <Array as="points">
              <mxPoint x="240.5" y="519.52" />
            </Array>
            <mxPoint as="offset" />
          </mxGeometry>
        </mxCell>
        <mxCell id="rRQOPOqROTzxPJMI8QWG-7" style="edgeStyle=orthogonalEdgeStyle;rounded=0;orthogonalLoop=1;jettySize=auto;html=1;curved=0;" edge="1" parent="1">
          <mxGeometry relative="1" as="geometry">
            <mxPoint x="519.996835443038" y="564.5226582278481" as="sourcePoint" />
            <mxPoint x="829.25" y="564.5226582278481" as="targetPoint" />
            <Array as="points">
              <mxPoint x="589.75" y="564.51" />
              <mxPoint x="589.75" y="564.51" />
            </Array>
          </mxGeometry>
        </mxCell>
        <mxCell id="rRQOPOqROTzxPJMI8QWG-8" value="insertCredentials(credentials)" style="edgeLabel;html=1;align=center;verticalAlign=middle;resizable=0;points=[];" vertex="1" connectable="0" parent="rRQOPOqROTzxPJMI8QWG-7">
          <mxGeometry x="0.0133" y="1" relative="1" as="geometry">
            <mxPoint y="-9" as="offset" />
          </mxGeometry>
        </mxCell>
        <mxCell id="rRQOPOqROTzxPJMI8QWG-11" value="HomePage" style="html=1;verticalAlign=bottom;endArrow=open;dashed=1;endSize=8;curved=0;rounded=0;" edge="1" parent="1">
          <mxGeometry x="-0.0023" relative="1" as="geometry">
            <mxPoint x="829.5" y="718.05" as="sourcePoint" />
            <mxPoint x="520" y="718" as="targetPoint" />
            <Array as="points">
              <mxPoint x="770" y="718.05" />
              <mxPoint x="710" y="718.05" />
              <mxPoint x="650" y="718.05" />
              <mxPoint x="620" y="718.05" />
            </Array>
            <mxPoint as="offset" />
          </mxGeometry>
        </mxCell>
        <mxCell id="rRQOPOqROTzxPJMI8QWG-13" value="LoginPage" style="html=1;verticalAlign=bottom;endArrow=open;dashed=1;endSize=8;curved=0;rounded=0;" edge="1" parent="1">
          <mxGeometry x="-0.0023" relative="1" as="geometry">
            <mxPoint x="829.5" y="790.05" as="sourcePoint" />
            <mxPoint x="520" y="790" as="targetPoint" />
            <Array as="points">
              <mxPoint x="770" y="790.05" />
              <mxPoint x="710" y="790.05" />
              <mxPoint x="650" y="790.05" />
              <mxPoint x="620" y="790.05" />
            </Array>
            <mxPoint as="offset" />
          </mxGeometry>
        </mxCell>
        <mxCell id="rRQOPOqROTzxPJMI8QWG-14" value="API" style="shape=module;align=left;spacingLeft=20;align=center;verticalAlign=top;whiteSpace=wrap;html=1;" vertex="1" parent="1">
          <mxGeometry x="460" y="360" width="110" height="50" as="geometry" />
        </mxCell>
        <mxCell id="rRQOPOqROTzxPJMI8QWG-15" value="LoginManager" style="shape=module;align=left;spacingLeft=20;align=center;verticalAlign=top;whiteSpace=wrap;html=1;" vertex="1" parent="1">
          <mxGeometry x="770" y="360" width="110" height="50" as="geometry" />
        </mxCell>
        <mxCell id="rRQOPOqROTzxPJMI8QWG-16" value="Database" style="shape=module;align=left;spacingLeft=20;align=center;verticalAlign=top;whiteSpace=wrap;html=1;" vertex="1" parent="1">
          <mxGeometry x="1070" y="360" width="110" height="50" as="geometry" />
        </mxCell>
        <mxCell id="rRQOPOqROTzxPJMI8QWG-21" value="ok" style="html=1;verticalAlign=bottom;endArrow=open;dashed=1;endSize=8;curved=0;rounded=0;" edge="1" parent="1">
          <mxGeometry x="-0.0023" relative="1" as="geometry">
            <mxPoint x="1130" y="695" as="sourcePoint" />
            <mxPoint x="830" y="694.52" as="targetPoint" />
            <Array as="points">
              <mxPoint x="1080" y="694.5699999999999" />
              <mxPoint x="1020" y="694.5699999999999" />
              <mxPoint x="960" y="694.5699999999999" />
              <mxPoint x="930" y="694.5699999999999" />
            </Array>
            <mxPoint as="offset" />
          </mxGeometry>
        </mxCell>
        <mxCell id="rRQOPOqROTzxPJMI8QWG-22" value="error" style="html=1;verticalAlign=bottom;endArrow=open;dashed=1;endSize=8;curved=0;rounded=0;" edge="1" parent="1">
          <mxGeometry x="-0.0032" relative="1" as="geometry">
            <mxPoint x="1130" y="780.48" as="sourcePoint" />
            <mxPoint x="830" y="780" as="targetPoint" />
            <Array as="points">
              <mxPoint x="1080" y="780.05" />
              <mxPoint x="1020" y="780.05" />
              <mxPoint x="960" y="780.05" />
              <mxPoint x="930" y="780.05" />
            </Array>
            <mxPoint as="offset" />
          </mxGeometry>
        </mxCell>
      </root>
    </mxGraphModel>
  </diagram>
</mxfile>
